<svg id="svg" version="1.1" xmlns="http://www.w3.org/2000/svg" xmlns:xlink="http://www.w3.org/1999/xlink" width="400" height="400" viewBox="0, 0, 400,400"><g id="svgg"><path id="path0" d="M140.800 47.207 C 101.657 51.818,69.522 75.103,54.697 109.600 C 54.366 110.370,53.825 111.630,53.495 112.400 C 36.550 151.927,48.505 202.332,81.620 230.979 C 104.077 250.407,136.377 260.462,163.400 256.438 C 173.535 254.929,184.669 251.990,191.200 249.100 C 261.190 218.132,278.391 130.768,225.006 77.396 C 203.100 55.495,170.294 43.734,140.800 47.207 " stroke="none" fill="#bbdbf3" fill-rule="evenodd"></path><path id="path1" d="M138.800 1.611 C 138.800 1.836,137.193 2.000,135.000 2.000 C 132.733 2.000,131.200 2.161,131.200 2.400 C 131.200 2.626,130.067 2.800,128.600 2.800 C 127.133 2.800,126.000 2.974,126.000 3.200 C 126.000 3.420,125.010 3.600,123.800 3.600 C 122.590 3.600,121.600 3.780,121.600 4.000 C 121.600 4.220,120.801 4.400,119.824 4.400 C 118.847 4.400,117.936 4.580,117.800 4.800 C 117.664 5.020,116.753 5.200,115.776 5.200 C 114.799 5.200,114.000 5.380,114.000 5.600 C 114.000 5.820,113.381 6.000,112.624 6.000 C 111.867 6.000,111.136 6.180,111.000 6.400 C 110.864 6.620,110.223 6.800,109.576 6.800 C 108.929 6.800,108.400 6.980,108.400 7.200 C 108.400 7.420,107.871 7.600,107.224 7.600 C 106.577 7.600,105.936 7.780,105.800 8.000 C 105.664 8.220,105.111 8.400,104.571 8.400 C 104.031 8.400,103.277 8.559,102.895 8.753 C 101.537 9.444,100.181 9.967,98.800 10.334 C 98.030 10.538,96.410 11.102,95.200 11.586 C 93.990 12.071,92.959 12.461,92.908 12.452 C 92.800 12.435,89.899 13.690,86.800 15.094 C 85.590 15.643,84.367 16.127,84.083 16.172 C 83.798 16.216,83.211 16.555,82.778 16.926 C 82.345 17.297,81.715 17.600,81.379 17.600 C 81.042 17.600,80.380 17.960,79.908 18.400 C 79.436 18.840,78.813 19.200,78.525 19.200 C 78.236 19.200,78.000 19.336,78.000 19.502 C 78.000 19.669,77.415 20.063,76.700 20.378 C 75.556 20.883,71.295 23.448,70.200 24.292 C 69.980 24.461,69.260 24.870,68.600 25.200 C 67.940 25.530,67.181 26.070,66.913 26.400 C 66.645 26.730,66.420 26.865,66.413 26.700 C 66.406 26.535,66.067 26.715,65.661 27.100 C 65.254 27.485,64.489 28.104,63.961 28.476 C 63.432 28.848,62.203 29.748,61.230 30.476 C 60.256 31.204,58.789 32.278,57.970 32.863 C 57.150 33.448,55.698 34.663,54.742 35.563 C 53.786 36.463,52.871 37.200,52.708 37.200 C 52.232 37.200,41.200 47.731,41.200 48.186 C 41.200 48.323,40.100 49.548,38.756 50.909 C 37.412 52.269,35.784 54.152,35.137 55.091 C 34.491 56.031,33.802 56.800,33.608 56.800 C 33.413 56.800,33.153 57.117,33.030 57.505 C 32.907 57.893,32.023 59.063,31.067 60.105 C 30.110 61.147,29.396 62.000,29.479 62.000 C 29.642 62.000,29.042 62.771,27.900 64.029 C 27.515 64.453,27.200 64.980,27.200 65.200 C 27.200 65.420,27.009 65.600,26.776 65.600 C 26.543 65.600,26.451 65.760,26.572 65.955 C 26.693 66.150,26.523 66.532,26.196 66.804 C 25.868 67.076,25.600 67.546,25.600 67.849 C 25.600 68.152,25.420 68.400,25.200 68.400 C 24.980 68.400,24.800 68.670,24.800 69.000 C 24.800 69.330,24.620 69.600,24.400 69.600 C 24.180 69.600,24.000 69.842,24.000 70.138 C 24.000 70.434,23.640 71.002,23.200 71.400 C 22.760 71.798,22.400 72.284,22.400 72.479 C 22.400 72.674,22.040 73.220,21.600 73.692 C 21.160 74.164,20.800 74.787,20.800 75.075 C 20.800 75.364,20.620 75.600,20.400 75.600 C 20.180 75.600,20.000 75.945,20.000 76.367 C 20.000 76.788,19.865 77.193,19.700 77.267 C 19.189 77.494,14.400 86.831,14.400 87.600 C 14.400 87.820,14.220 88.000,14.000 88.000 C 13.780 88.000,13.600 88.324,13.600 88.720 C 13.600 89.116,13.450 89.611,13.266 89.820 C 13.082 90.029,12.615 91.100,12.228 92.200 C 11.841 93.300,11.181 94.963,10.762 95.896 C 10.343 96.828,10.000 97.943,10.000 98.372 C 10.000 98.801,9.820 99.264,9.600 99.400 C 9.380 99.536,9.200 99.997,9.200 100.424 C 9.200 100.851,9.020 101.200,8.800 101.200 C 8.580 101.200,8.400 101.740,8.400 102.400 C 8.400 103.060,8.220 103.600,8.000 103.600 C 7.780 103.600,7.600 104.140,7.600 104.800 C 7.600 105.460,7.420 106.000,7.200 106.000 C 6.980 106.000,6.800 106.619,6.800 107.376 C 6.800 108.133,6.620 108.864,6.400 109.000 C 6.180 109.136,6.000 109.777,6.000 110.424 C 6.000 111.071,5.820 111.600,5.600 111.600 C 5.380 111.600,5.200 112.219,5.200 112.976 C 5.200 113.733,5.020 114.464,4.800 114.600 C 4.580 114.736,4.400 115.546,4.400 116.400 C 4.400 117.254,4.220 118.064,4.000 118.200 C 3.780 118.336,3.600 119.257,3.600 120.247 C 3.600 121.345,3.444 121.951,3.200 121.800 C 2.950 121.646,2.800 122.463,2.800 123.976 C 2.800 125.325,2.623 126.400,2.400 126.400 C 2.178 126.400,2.000 127.467,2.000 128.800 C 2.000 130.120,1.832 131.200,1.627 131.200 C 0.692 131.200,0.306 161.916,1.155 168.800 C 1.413 170.890,1.724 173.680,1.846 175.000 C 1.968 176.320,2.232 177.571,2.434 177.780 C 2.635 177.989,2.800 179.024,2.800 180.080 C 2.800 181.136,2.980 182.000,3.200 182.000 C 3.420 182.000,3.600 182.799,3.600 183.776 C 3.600 184.753,3.780 185.664,4.000 185.800 C 4.220 185.936,4.400 186.757,4.400 187.624 C 4.400 188.491,4.580 189.200,4.800 189.200 C 5.020 189.200,5.200 189.920,5.200 190.800 C 5.200 191.680,5.380 192.400,5.600 192.400 C 5.820 192.400,6.000 192.940,6.000 193.600 C 6.000 194.260,6.180 194.800,6.400 194.800 C 6.620 194.800,6.800 195.419,6.800 196.176 C 6.800 196.933,6.980 197.664,7.200 197.800 C 7.420 197.936,7.600 198.487,7.600 199.024 C 7.600 199.561,7.780 200.000,8.000 200.000 C 8.220 200.000,8.400 200.414,8.400 200.920 C 8.400 201.426,8.546 202.011,8.724 202.220 C 8.903 202.429,9.658 204.490,10.403 206.800 C 11.147 209.110,11.901 211.060,12.078 211.133 C 12.255 211.207,12.400 211.535,12.400 211.863 C 12.400 212.190,13.390 214.510,14.600 217.018 C 15.810 219.525,16.800 221.762,16.800 221.988 C 16.800 222.215,16.980 222.400,17.200 222.400 C 17.420 222.400,17.600 222.670,17.600 223.000 C 17.600 223.330,17.738 223.600,17.906 223.600 C 18.074 223.600,18.518 224.275,18.894 225.100 C 19.580 226.609,20.828 228.828,21.200 229.200 C 21.310 229.310,21.625 229.805,21.900 230.300 C 22.175 230.795,22.625 231.605,22.900 232.100 C 23.175 232.595,23.504 233.090,23.630 233.200 C 24.107 233.615,27.200 238.370,27.200 238.689 C 27.200 238.872,27.695 239.567,28.300 240.233 C 28.905 240.899,29.933 242.155,30.586 243.022 C 31.238 243.890,32.003 244.838,32.286 245.129 C 32.568 245.419,32.800 245.779,32.800 245.929 C 32.800 246.078,33.475 246.940,34.300 247.844 C 35.125 248.748,36.250 250.080,36.800 250.803 C 37.350 251.526,38.774 253.036,39.964 254.159 C 41.155 255.281,42.415 256.541,42.764 256.958 C 44.029 258.467,51.594 265.740,52.553 266.369 C 53.093 266.723,54.135 267.603,54.868 268.324 C 56.949 270.371,57.447 270.800,57.739 270.800 C 57.963 270.800,59.838 272.208,63.083 274.812 C 63.349 275.026,63.688 275.200,63.836 275.200 C 63.985 275.200,64.397 275.516,64.753 275.903 C 65.109 276.289,65.892 276.858,66.493 277.167 C 67.095 277.475,67.905 278.024,68.293 278.386 C 68.682 278.748,69.585 279.303,70.300 279.620 C 71.015 279.936,71.600 280.303,71.600 280.435 C 71.600 280.566,72.455 281.106,73.500 281.635 C 74.545 282.163,75.609 282.792,75.864 283.033 C 76.119 283.274,77.379 283.981,78.664 284.604 C 79.949 285.227,81.090 285.843,81.200 285.973 C 81.712 286.582,89.651 290.000,90.550 290.000 C 90.908 290.000,91.200 290.157,91.200 290.348 C 91.200 290.539,92.015 290.924,93.010 291.203 C 94.006 291.482,94.917 291.865,95.034 292.055 C 95.151 292.245,95.599 292.400,96.029 292.400 C 96.459 292.400,97.123 292.559,97.505 292.753 C 97.887 292.948,98.740 293.329,99.400 293.600 C 100.060 293.871,100.913 294.252,101.295 294.447 C 101.677 294.641,102.354 294.800,102.800 294.800 C 103.583 294.800,103.968 294.942,105.895 295.938 C 106.387 296.192,107.332 296.400,107.995 296.400 C 108.658 296.400,109.200 296.580,109.200 296.800 C 109.200 297.020,109.830 297.200,110.600 297.200 C 111.370 297.200,112.000 297.380,112.000 297.600 C 112.000 297.820,112.720 298.000,113.600 298.000 C 114.480 298.000,115.200 298.180,115.200 298.400 C 115.200 298.620,116.010 298.800,117.000 298.800 C 117.990 298.800,118.800 298.980,118.800 299.200 C 118.800 299.420,119.599 299.600,120.576 299.600 C 121.553 299.600,122.464 299.780,122.600 300.000 C 122.736 300.220,123.701 300.400,124.744 300.400 C 125.787 300.400,126.820 300.580,127.040 300.800 C 127.260 301.020,128.601 301.245,130.020 301.300 C 131.439 301.355,132.696 301.528,132.814 301.685 C 132.932 301.842,134.912 302.074,137.214 302.201 C 139.516 302.329,142.300 302.541,143.400 302.673 C 146.192 303.008,156.359 303.003,160.200 302.665 C 161.960 302.510,164.642 302.309,166.160 302.219 C 167.677 302.128,169.027 301.887,169.160 301.684 C 169.292 301.480,169.670 301.353,170.000 301.402 C 170.330 301.451,171.590 301.327,172.800 301.127 C 174.010 300.927,176.080 300.585,177.400 300.367 C 178.720 300.149,180.565 299.869,181.500 299.745 C 182.435 299.621,183.200 299.358,183.200 299.160 C 183.200 298.962,183.909 298.800,184.776 298.800 C 185.643 298.800,186.464 298.620,186.600 298.400 C 186.736 298.180,187.456 298.000,188.200 298.000 C 188.944 298.000,189.664 297.820,189.800 297.600 C 189.936 297.380,190.667 297.200,191.424 297.200 C 192.181 297.200,192.800 297.020,192.800 296.800 C 192.800 296.580,193.430 296.400,194.200 296.400 C 194.970 296.400,195.600 296.220,195.600 296.000 C 195.600 295.780,196.039 295.600,196.576 295.600 C 197.113 295.600,197.664 295.420,197.800 295.200 C 197.936 294.980,198.476 294.800,199.000 294.800 C 199.524 294.800,200.064 294.620,200.200 294.400 C 200.336 294.180,200.977 294.000,201.624 294.000 C 202.271 294.000,202.800 293.820,202.800 293.600 C 202.800 293.380,203.250 293.200,203.800 293.200 C 204.350 293.200,204.800 293.020,204.800 292.800 C 204.800 292.580,205.149 292.400,205.576 292.400 C 206.003 292.400,206.464 292.220,206.600 292.000 C 206.736 291.780,207.199 291.600,207.629 291.600 C 208.059 291.600,208.723 291.437,209.105 291.238 C 209.487 291.038,210.970 290.391,212.400 289.799 C 215.489 288.521,223.315 284.749,223.600 284.402 C 223.710 284.268,224.467 283.848,225.281 283.469 C 226.096 283.090,226.996 282.559,227.281 282.288 C 227.567 282.017,228.655 281.363,229.700 280.835 C 230.745 280.306,231.600 279.723,231.600 279.537 C 231.600 279.352,231.878 279.200,232.217 279.200 C 232.556 279.200,233.220 278.840,233.692 278.400 C 234.164 277.960,234.798 277.600,235.099 277.600 C 235.401 277.600,235.536 277.420,235.400 277.200 C 235.264 276.980,235.388 276.800,235.676 276.800 C 235.964 276.799,236.738 276.336,237.396 275.770 C 238.054 275.204,239.086 274.643,239.690 274.522 C 240.293 274.401,240.688 274.143,240.568 273.948 C 240.076 273.152,240.965 271.987,243.512 270.091 C 251.551 264.110,262.546 253.191,268.645 245.134 C 270.088 243.228,271.752 241.469,272.341 241.224 C 272.931 240.980,273.651 240.244,273.941 239.588 C 274.232 238.932,274.603 238.478,274.767 238.580 C 274.931 238.681,275.309 238.142,275.607 237.382 C 275.905 236.622,276.296 236.000,276.475 236.000 C 276.654 236.000,276.800 235.730,276.800 235.400 C 276.800 235.070,276.950 234.800,277.132 234.800 C 277.315 234.800,277.718 234.305,278.027 233.700 C 278.793 232.200,280.135 230.229,280.500 230.067 C 280.665 229.993,280.800 229.603,280.800 229.200 C 280.800 228.797,280.935 228.407,281.100 228.333 C 281.476 228.166,282.775 226.036,283.071 225.100 C 283.193 224.715,283.452 224.400,283.647 224.400 C 283.841 224.400,284.000 224.040,284.000 223.600 C 284.000 223.160,284.180 222.800,284.400 222.800 C 284.620 222.800,284.800 222.528,284.800 222.195 C 284.800 221.639,285.522 220.078,286.000 219.600 C 286.473 219.127,289.981 211.355,290.118 210.476 C 290.176 210.104,290.393 209.530,290.600 209.200 C 291.041 208.499,291.122 208.240,291.448 206.500 C 291.581 205.785,291.818 205.200,291.973 205.200 C 292.128 205.200,292.500 204.300,292.800 203.200 C 293.100 202.100,293.492 201.200,293.672 201.200 C 293.853 201.200,294.000 200.660,294.000 200.000 C 294.000 199.340,294.180 198.800,294.400 198.800 C 294.620 198.800,294.800 198.181,294.800 197.424 C 294.800 196.667,294.980 195.936,295.200 195.800 C 295.420 195.664,295.600 195.023,295.600 194.376 C 295.600 193.729,295.780 193.200,296.000 193.200 C 296.220 193.200,296.400 192.480,296.400 191.600 C 296.400 190.720,296.580 190.000,296.800 190.000 C 297.020 190.000,297.200 189.370,297.200 188.600 C 297.200 187.830,297.380 187.200,297.600 187.200 C 297.820 187.200,298.000 186.390,298.000 185.400 C 298.000 184.410,298.163 183.600,298.361 183.600 C 298.560 183.600,298.822 182.745,298.944 181.700 C 299.065 180.655,299.353 178.630,299.584 177.200 C 299.814 175.770,300.140 173.250,300.307 171.600 C 300.474 169.950,300.751 168.380,300.922 168.111 C 301.916 166.551,302.079 141.011,301.121 137.000 C 300.911 136.120,300.579 134.050,300.383 132.400 C 300.186 130.750,299.833 128.230,299.598 126.800 C 299.363 125.370,299.070 123.390,298.946 122.400 C 298.823 121.410,298.560 120.429,298.361 120.220 C 298.163 120.011,298.000 119.167,298.000 118.344 C 298.000 117.521,297.820 116.736,297.600 116.600 C 297.380 116.464,297.200 115.643,297.200 114.776 C 297.200 113.909,297.020 113.200,296.800 113.200 C 296.580 113.200,296.400 112.671,296.400 112.024 C 296.400 111.377,296.220 110.736,296.000 110.600 C 295.780 110.464,295.600 109.733,295.600 108.976 C 295.600 108.219,295.420 107.600,295.200 107.600 C 294.980 107.600,294.800 107.161,294.800 106.624 C 294.800 106.087,294.620 105.536,294.400 105.400 C 294.180 105.264,294.000 104.623,294.000 103.976 C 294.000 103.329,293.820 102.800,293.600 102.800 C 293.380 102.800,293.200 102.260,293.200 101.600 C 293.200 100.940,293.020 100.400,292.800 100.400 C 292.580 100.400,292.400 99.860,292.400 99.200 C 292.400 98.540,292.265 98.000,292.100 98.000 C 291.935 98.000,291.452 96.910,291.026 95.578 C 290.600 94.246,290.105 93.065,289.926 92.954 C 289.747 92.843,289.598 92.448,289.597 92.076 C 289.591 90.908,280.919 74.000,280.326 74.000 C 280.147 74.000,280.000 73.722,280.000 73.383 C 280.000 73.044,279.640 72.380,279.200 71.908 C 278.760 71.436,278.400 70.813,278.400 70.525 C 278.400 70.236,278.232 70.000,278.027 70.000 C 277.822 70.000,277.547 69.662,277.416 69.249 C 277.284 68.836,276.733 67.981,276.189 67.349 C 275.646 66.717,275.201 65.975,275.200 65.700 C 275.200 65.425,275.065 65.196,274.900 65.191 C 274.735 65.186,274.060 64.377,273.400 63.392 C 272.740 62.407,272.054 61.601,271.876 61.601 C 271.698 61.600,271.644 61.453,271.755 61.273 C 271.866 61.093,271.112 60.029,270.078 58.909 C 269.045 57.789,267.930 56.480,267.600 56.001 C 265.935 53.581,251.768 38.800,251.113 38.800 C 250.943 38.800,249.885 37.900,248.761 36.800 C 247.638 35.700,246.529 34.800,246.297 34.800 C 246.065 34.800,245.169 34.080,244.307 33.200 C 243.444 32.320,242.635 31.600,242.508 31.600 C 242.291 31.600,240.557 30.361,237.351 27.916 C 236.569 27.320,235.586 26.722,235.165 26.589 C 234.744 26.455,234.400 26.178,234.400 25.973 C 234.400 25.768,234.164 25.600,233.875 25.600 C 233.587 25.600,232.964 25.240,232.492 24.800 C 232.020 24.360,231.523 24.000,231.389 24.000 C 231.254 24.000,230.359 23.460,229.400 22.800 C 228.441 22.140,227.463 21.600,227.228 21.600 C 226.993 21.600,226.800 21.420,226.800 21.200 C 226.800 20.980,226.440 20.800,226.000 20.800 C 225.560 20.800,225.200 20.664,225.200 20.499 C 225.200 20.333,223.625 19.388,221.700 18.399 C 219.775 17.409,218.110 16.496,218.000 16.368 C 217.800 16.137,210.131 12.800,209.799 12.800 C 209.703 12.800,208.673 12.368,207.512 11.840 C 206.350 11.313,204.590 10.663,203.600 10.396 C 202.610 10.130,201.440 9.764,201.000 9.582 C 200.560 9.401,199.480 9.039,198.600 8.777 C 197.720 8.516,196.687 8.144,196.305 7.951 C 195.923 7.758,195.068 7.600,194.405 7.600 C 193.742 7.600,193.200 7.420,193.200 7.200 C 193.200 6.980,192.671 6.800,192.024 6.800 C 191.377 6.800,190.736 6.620,190.600 6.400 C 190.464 6.180,189.733 6.000,188.976 6.000 C 188.219 6.000,187.600 5.839,187.600 5.642 C 187.600 5.445,186.925 5.182,186.100 5.057 C 185.275 4.933,183.880 4.723,183.000 4.591 C 182.120 4.458,181.040 4.192,180.600 3.998 C 179.634 3.572,177.194 3.219,173.300 2.943 C 171.705 2.830,170.400 2.584,170.400 2.397 C 170.400 1.881,164.278 1.563,150.900 1.384 C 143.223 1.282,138.800 1.365,138.800 1.611 M165.600 46.722 C 184.363 49.479,200.020 56.114,215.757 67.978 C 230.455 79.059,242.724 95.360,249.792 113.200 C 251.566 117.677,251.762 118.263,253.204 123.400 C 255.791 132.615,256.977 141.534,256.981 151.800 C 256.984 161.032,256.195 168.297,254.395 175.600 C 254.206 176.370,253.835 177.900,253.572 179.000 C 251.505 187.650,247.856 196.202,241.627 207.000 C 232.625 222.604,216.309 237.690,198.836 246.563 C 187.336 252.404,177.082 255.506,163.400 257.284 C 158.672 257.898,143.618 257.902,138.800 257.289 C 132.409 256.477,130.546 256.137,125.200 254.800 C 124.320 254.580,122.925 254.245,122.100 254.055 C 84.984 245.515,51.510 207.401,45.993 167.400 C 44.369 155.624,44.909 138.640,47.195 129.600 C 47.390 128.830,47.761 127.300,48.019 126.200 C 50.029 117.626,54.293 106.983,58.478 100.093 C 59.315 98.714,60.000 97.509,60.000 97.415 C 60.000 97.320,61.125 95.566,62.500 93.516 C 70.887 81.012,80.051 71.799,92.000 63.860 C 93.870 62.618,95.580 61.466,95.800 61.301 C 99.489 58.529,111.982 52.880,119.402 50.630 C 126.409 48.504,126.355 48.518,129.400 47.992 C 130.940 47.725,132.722 47.348,133.360 47.154 C 133.998 46.959,135.348 46.782,136.360 46.760 C 137.372 46.738,138.650 46.570,139.200 46.386 C 140.505 45.951,162.228 46.227,165.600 46.722 M287.825 257.817 C 286.761 259.442,257.174 288.754,256.328 289.023 C 255.906 289.157,255.255 289.026,254.881 288.733 C 254.268 288.253,254.255 288.270,254.749 288.900 C 256.207 290.759,256.655 290.396,273.126 273.962 C 282.796 264.314,288.800 258.032,288.800 257.562 C 288.800 256.554,288.623 256.600,287.825 257.817 M243.374 277.300 C 243.990 278.125,244.570 278.800,244.662 278.800 C 245.014 278.800,244.031 277.354,243.163 276.596 C 242.417 275.944,242.455 276.072,243.374 277.300 M246.200 280.400 C 246.598 280.840,247.104 281.200,247.323 281.200 C 247.543 281.200,247.307 280.840,246.800 280.400 C 246.293 279.960,245.787 279.600,245.677 279.600 C 245.566 279.600,245.802 279.960,246.200 280.400 M251.433 285.600 C 253.667 287.926,254.000 288.213,254.000 287.809 C 254.000 287.513,249.686 283.200,249.390 283.200 C 249.245 283.200,250.165 284.280,251.433 285.600 " stroke="none" fill="#8c9ca4" fill-rule="evenodd"></path><path id="path2" d="M124.800 3.200 C 124.800 3.420,125.070 3.600,125.400 3.600 C 125.730 3.600,126.000 3.420,126.000 3.200 C 126.000 2.980,125.730 2.800,125.400 2.800 C 125.070 2.800,124.800 2.980,124.800 3.200 M234.410 25.886 C 234.415 26.059,235.090 26.519,235.910 26.909 C 237.109 27.480,237.244 27.494,236.600 26.980 C 235.420 26.038,234.399 25.528,234.410 25.886 M237.600 27.936 C 237.600 28.148,238.275 28.741,239.100 29.254 C 239.925 29.767,240.850 30.348,241.155 30.544 C 241.482 30.754,241.619 30.754,241.488 30.542 C 241.077 29.877,237.600 27.546,237.600 27.936 M60.494 30.418 C 58.264 32.222,56.890 33.729,58.733 32.349 C 59.136 32.047,60.306 31.180,61.333 30.423 C 62.360 29.666,63.200 28.901,63.200 28.723 C 63.200 28.234,63.169 28.254,60.494 30.418 M53.818 35.818 C 53.187 36.360,52.745 36.878,52.835 36.968 C 52.926 37.058,53.516 36.688,54.146 36.145 C 54.777 35.603,55.219 35.085,55.129 34.996 C 55.039 34.906,54.449 35.276,53.818 35.818 M257.000 44.400 C 257.859 45.280,258.652 46.000,258.762 46.000 C 258.872 46.000,258.259 45.280,257.400 44.400 C 256.541 43.520,255.748 42.800,255.638 42.800 C 255.528 42.800,256.141 43.520,257.000 44.400 M40.060 48.642 C 39.331 49.466,39.800 49.857,40.581 49.076 C 40.921 48.736,41.200 48.354,41.200 48.229 C 41.200 47.809,40.606 48.024,40.060 48.642 M34.473 55.400 C 34.222 55.950,34.083 56.400,34.163 56.400 C 34.243 56.400,34.603 55.950,34.963 55.400 C 35.324 54.850,35.463 54.400,35.273 54.400 C 35.084 54.400,34.723 54.850,34.473 55.400 M267.215 55.317 C 267.197 55.687,267.397 55.936,269.853 58.600 C 270.868 59.700,271.501 60.240,271.262 59.800 C 270.680 58.732,267.235 54.914,267.215 55.317 M31.599 58.602 C 31.083 59.151,30.844 59.600,31.068 59.600 C 31.579 59.600,32.998 58.065,32.732 57.799 C 32.625 57.691,32.114 58.052,31.599 58.602 M30.000 60.800 C 29.450 61.230,29.197 61.586,29.438 61.591 C 29.679 61.596,30.202 61.240,30.600 60.800 C 31.512 59.792,31.288 59.792,30.000 60.800 M272.472 62.197 C 272.949 62.745,273.427 63.107,273.534 63.000 C 273.776 62.757,272.398 61.200,271.941 61.200 C 271.756 61.200,271.995 61.649,272.472 62.197 M287.200 86.553 C 287.200 86.982,288.390 89.200,288.621 89.200 C 288.731 89.200,288.523 88.615,288.159 87.900 C 287.417 86.440,287.200 86.136,287.200 86.553 M10.885 94.573 C 10.186 96.108,10.292 96.817,11.013 95.433 C 11.348 94.791,11.565 94.096,11.496 93.888 C 11.427 93.680,11.152 93.988,10.885 94.573 M300.454 133.000 C 300.433 134.330,301.267 137.800,301.714 138.247 C 302.181 138.714,302.029 137.574,301.227 134.600 C 300.720 132.718,300.466 132.193,300.454 133.000 M301.442 139.434 C 301.308 139.783,301.374 140.368,301.587 140.734 C 301.896 141.264,301.978 141.134,301.988 140.100 C 302.001 138.677,301.818 138.454,301.442 139.434 M301.525 144.604 C 301.615 145.376,301.879 146.125,302.112 146.269 C 302.381 146.435,302.438 146.275,302.268 145.833 C 302.121 145.449,302.000 144.699,302.000 144.167 C 302.000 143.635,301.856 143.200,301.680 143.200 C 301.504 143.200,301.434 143.832,301.525 144.604 M302.111 151.600 C 302.106 156.071,302.148 156.378,302.508 154.503 C 302.777 153.103,302.779 151.441,302.514 149.503 L 302.116 146.600 302.111 151.600 M301.477 159.100 C 301.359 159.705,301.428 160.371,301.631 160.580 C 301.858 160.814,302.000 160.392,302.000 159.480 C 302.000 157.728,301.778 157.567,301.477 159.100 M301.653 162.800 C 301.608 162.910,301.466 164.080,301.336 165.400 C 301.207 166.720,300.944 168.103,300.751 168.474 C 300.558 168.844,300.416 169.834,300.436 170.674 C 300.465 171.877,300.638 171.482,301.254 168.802 C 301.849 166.222,302.158 161.563,301.653 162.800 M24.009 234.300 C 24.014 234.465,24.370 235.050,24.800 235.600 C 25.230 236.150,25.586 236.782,25.591 237.004 C 25.596 237.226,25.965 237.635,26.411 237.914 C 27.005 238.285,26.830 237.831,25.754 236.210 C 24.321 234.051,23.991 233.690,24.009 234.300 M274.057 239.257 C 273.775 239.709,273.632 240.166,273.740 240.273 C 273.847 240.381,274.144 240.078,274.400 239.600 C 275.005 238.470,274.724 238.190,274.057 239.257 M28.922 241.514 C 29.295 241.926,29.606 242.429,29.613 242.631 C 29.619 242.834,30.079 243.330,30.633 243.734 L 31.641 244.468 30.521 242.854 C 29.904 241.966,29.140 241.133,28.822 241.003 C 28.399 240.829,28.426 240.965,28.922 241.514 M299.800 250.800 C 299.664 251.020,298.753 251.200,297.776 251.200 C 296.799 251.200,296.000 251.380,296.000 251.600 C 296.000 251.820,295.550 252.000,295.000 252.000 C 294.450 252.000,294.000 252.180,294.000 252.400 C 294.000 252.620,293.730 252.800,293.400 252.800 C 293.070 252.800,292.800 252.980,292.800 253.200 C 292.800 253.420,292.564 253.600,292.275 253.600 C 291.987 253.600,291.364 253.960,290.892 254.400 C 290.420 254.840,289.775 255.200,289.460 255.200 C 288.727 255.200,288.430 255.977,288.674 257.254 C 288.928 258.580,258.090 289.600,256.519 289.600 C 255.591 289.600,253.129 291.796,252.868 292.856 C 252.795 293.151,252.615 293.484,252.467 293.596 C 252.320 293.708,251.953 294.340,251.653 295.000 C 251.352 295.660,250.948 296.513,250.753 296.895 C 250.559 297.277,250.400 298.121,250.400 298.771 C 250.400 299.421,250.239 300.052,250.042 300.174 C 249.172 300.712,248.914 305.547,249.582 308.800 C 249.830 310.010,250.136 311.585,250.260 312.300 C 250.385 313.015,250.648 313.600,250.844 313.600 C 251.040 313.600,251.200 313.943,251.200 314.362 C 251.200 315.269,252.808 318.400,253.274 318.400 C 253.453 318.400,253.600 318.582,253.600 318.803 C 253.600 319.251,255.288 321.277,256.734 322.567 C 257.248 323.025,259.422 325.110,261.565 327.200 C 263.707 329.290,266.296 331.720,267.316 332.600 C 268.336 333.480,269.179 334.380,269.188 334.600 C 269.196 334.820,271.176 336.935,273.586 339.300 C 275.996 341.665,277.886 343.600,277.784 343.600 C 277.560 343.600,287.739 353.693,294.324 360.000 C 303.416 368.708,311.585 377.082,311.283 377.384 C 311.164 377.503,311.397 377.600,311.800 377.600 C 312.203 377.600,312.426 377.707,312.295 377.839 C 311.926 378.207,324.784 390.800,325.529 390.800 C 325.694 390.800,326.453 391.333,327.215 391.984 C 327.977 392.635,328.915 393.175,329.300 393.184 C 329.685 393.193,330.000 393.380,330.000 393.600 C 330.000 393.820,330.270 394.000,330.600 394.000 C 330.930 394.000,331.200 394.180,331.200 394.400 C 331.200 394.620,331.650 394.800,332.200 394.800 C 332.750 394.800,333.200 394.980,333.200 395.200 C 333.200 395.420,333.560 395.600,334.000 395.600 C 334.440 395.600,334.800 395.780,334.800 396.000 C 334.800 396.220,335.160 396.400,335.600 396.400 C 336.040 396.400,336.400 396.580,336.400 396.800 C 336.400 397.020,336.940 397.200,337.600 397.200 C 338.260 397.200,338.800 397.380,338.800 397.600 C 338.800 397.820,339.160 398.000,339.600 398.000 C 340.040 398.000,340.400 398.180,340.400 398.400 C 340.400 398.620,341.174 398.800,342.120 398.800 C 343.066 398.800,344.059 399.019,344.327 399.287 C 345.007 399.967,363.284 399.949,363.511 399.268 C 363.602 398.995,364.488 398.800,365.633 398.800 C 366.715 398.800,367.600 398.620,367.600 398.400 C 367.600 398.180,368.050 398.000,368.600 398.000 C 369.150 398.000,369.600 397.820,369.600 397.600 C 369.600 397.380,369.955 397.200,370.388 397.200 C 370.821 397.200,371.817 396.840,372.600 396.400 C 373.383 395.960,374.289 395.600,374.612 395.600 C 374.935 395.600,375.200 395.420,375.200 395.200 C 375.200 394.980,375.560 394.800,376.000 394.800 C 376.440 394.800,376.800 394.620,376.800 394.400 C 376.800 394.180,377.120 394.000,377.512 394.000 C 377.903 394.000,378.483 393.640,378.800 393.200 C 379.117 392.760,379.697 392.400,380.088 392.400 C 380.480 392.400,380.801 392.265,380.803 392.100 C 380.804 391.935,381.479 391.364,382.303 390.830 C 384.348 389.506,389.178 384.510,390.400 382.455 C 390.950 381.531,391.805 380.285,392.300 379.687 C 392.794 379.089,393.199 378.375,393.200 378.100 C 393.200 377.825,393.380 377.600,393.600 377.600 C 393.820 377.600,394.000 377.240,394.000 376.800 C 394.000 376.360,394.180 376.000,394.400 376.000 C 394.620 376.000,394.800 375.550,394.800 375.000 C 394.800 374.450,394.980 374.000,395.200 374.000 C 395.420 374.000,395.600 373.550,395.600 373.000 C 395.600 372.450,395.780 372.000,396.000 372.000 C 396.220 372.000,396.400 371.561,396.400 371.024 C 396.400 370.487,396.580 369.936,396.800 369.800 C 397.020 369.664,397.200 369.113,397.200 368.576 C 397.200 368.039,397.380 367.600,397.600 367.600 C 397.820 367.600,398.000 366.895,398.000 366.033 C 398.000 365.172,398.184 364.405,398.409 364.330 C 398.969 364.144,398.966 344.655,398.406 344.469 C 398.183 344.394,398.000 343.808,398.000 343.167 C 398.000 342.525,397.820 342.000,397.600 342.000 C 397.380 342.000,397.200 341.651,397.200 341.224 C 397.200 340.797,397.020 340.336,396.800 340.200 C 396.580 340.064,396.400 339.513,396.400 338.976 C 396.400 338.439,396.220 338.000,396.000 338.000 C 395.780 338.000,395.600 337.460,395.600 336.800 C 395.600 336.140,395.420 335.600,395.200 335.600 C 394.980 335.600,394.800 335.240,394.800 334.800 C 394.800 334.360,394.620 334.000,394.400 334.000 C 394.180 334.000,394.000 333.674,394.000 333.275 C 394.000 332.877,393.640 332.164,393.200 331.692 C 392.760 331.220,392.400 330.556,392.400 330.217 C 392.400 329.878,392.264 329.600,392.098 329.600 C 391.931 329.600,391.575 329.105,391.306 328.500 C 390.510 326.714,370.709 306.000,369.796 306.000 C 369.702 306.000,367.684 304.066,365.312 301.701 C 362.941 299.337,360.865 297.447,360.700 297.501 C 360.535 297.556,360.400 297.323,360.400 296.984 C 360.400 296.428,340.794 276.400,340.250 276.400 C 339.984 276.400,323.493 259.783,322.000 258.011 C 321.450 257.358,320.851 256.819,320.669 256.812 C 320.486 256.805,319.670 256.125,318.854 255.300 C 317.207 253.636,315.921 252.800,315.005 252.800 C 314.672 252.800,314.400 252.620,314.400 252.400 C 314.400 252.180,314.040 252.000,313.600 252.000 C 313.160 252.000,312.800 251.820,312.800 251.600 C 312.800 251.380,312.091 251.200,311.224 251.200 C 310.357 251.200,309.536 251.020,309.400 250.800 C 309.259 250.571,307.204 250.400,304.600 250.400 C 301.996 250.400,299.941 250.571,299.800 250.800 M52.013 266.273 C 52.029 266.711,54.002 268.131,54.250 267.883 C 54.358 267.775,53.896 267.295,53.223 266.816 C 52.550 266.337,52.006 266.093,52.013 266.273 M55.851 269.789 C 55.967 270.091,56.309 270.433,56.611 270.549 C 56.957 270.682,57.082 270.557,56.949 270.211 C 56.833 269.909,56.491 269.567,56.189 269.451 C 55.843 269.318,55.718 269.443,55.851 269.789 M58.293 271.600 C 58.670 272.040,59.146 272.400,59.351 272.400 C 59.556 272.400,59.398 272.040,59.000 271.600 C 58.602 271.160,58.126 270.800,57.942 270.800 C 57.758 270.800,57.916 271.160,58.293 271.600 M61.683 274.176 C 62.796 275.229,63.202 275.423,63.197 274.900 C 63.196 274.735,62.611 274.274,61.897 273.876 L 60.600 273.152 61.683 274.176 M241.409 275.588 C 242.695 277.193,243.227 277.706,243.413 277.520 C 243.509 277.424,242.920 276.728,242.103 275.973 C 241.245 275.180,240.952 275.018,241.409 275.588 M245.200 279.464 C 245.200 279.682,245.695 280.297,246.300 280.830 L 247.400 281.800 246.400 280.600 C 245.850 279.940,245.355 279.325,245.300 279.233 C 245.245 279.142,245.200 279.245,245.200 279.464 M216.000 288.233 C 215.442 288.543,215.265 288.785,215.600 288.781 C 215.930 288.778,216.549 288.510,216.976 288.187 C 217.939 287.459,217.345 287.487,216.000 288.233 M90.576 290.613 C 91.004 290.936,91.634 291.179,91.976 291.154 C 92.461 291.118,92.444 291.066,91.900 290.924 C 91.515 290.824,91.200 290.575,91.200 290.371 C 91.200 290.167,90.885 290.006,90.500 290.013 C 89.867 290.024,89.874 290.081,90.576 290.613 M124.833 300.544 C 125.305 300.950,127.243 301.193,127.010 300.816 C 126.868 300.587,126.283 300.400,125.710 300.400 C 125.136 300.400,124.742 300.465,124.833 300.544 M175.200 300.808 C 175.200 301.050,175.647 301.108,176.300 300.951 C 177.870 300.575,177.923 300.400,176.467 300.400 C 175.770 300.400,175.200 300.583,175.200 300.808 M128.200 301.613 C 129.283 302.061,130.800 302.081,130.800 301.647 C 130.800 301.453,130.035 301.291,129.100 301.288 C 127.829 301.283,127.602 301.365,128.200 301.613 M171.000 301.600 C 170.856 301.833,171.263 302.000,171.976 302.000 C 172.649 302.000,173.200 301.820,173.200 301.600 C 173.200 301.380,172.761 301.200,172.224 301.200 C 171.687 301.200,171.136 301.380,171.000 301.600 M134.000 302.395 C 134.622 302.802,142.309 302.975,141.906 302.573 C 141.781 302.448,139.816 302.268,137.540 302.174 C 134.744 302.057,133.595 302.129,134.000 302.395 M162.800 302.433 L 160.600 302.670 163.500 302.735 C 166.310 302.798,167.141 302.651,165.700 302.345 C 165.315 302.263,164.010 302.303,162.800 302.433 M143.004 302.793 C 142.660 303.350,145.200 303.600,151.150 303.596 C 157.366 303.591,160.000 303.331,160.000 302.721 C 160.000 302.509,159.609 302.478,159.100 302.650 C 157.928 303.045,146.187 303.142,144.498 302.770 C 143.782 302.612,143.110 302.623,143.004 302.793 " stroke="none" fill="#64747c" fill-rule="evenodd"></path><path id="path3" d="M139.200 46.404 C 138.638 46.587,140.038 46.633,142.400 46.509 C 144.710 46.388,146.675 46.224,146.767 46.144 C 147.104 45.852,140.167 46.090,139.200 46.404 M155.233 46.144 C 155.325 46.224,157.290 46.385,159.600 46.501 C 161.910 46.618,163.260 46.575,162.600 46.404 C 161.408 46.097,154.914 45.868,155.233 46.144 M133.400 47.221 C 132.872 47.462,133.416 47.504,135.000 47.343 C 136.320 47.209,137.475 47.032,137.567 46.950 C 137.921 46.631,134.156 46.876,133.400 47.221 M164.433 46.950 C 164.525 47.032,165.680 47.209,167.000 47.343 C 168.584 47.504,169.128 47.462,168.600 47.221 C 167.844 46.876,164.079 46.631,164.433 46.950 M127.874 48.211 C 125.390 48.753,124.048 49.496,126.400 49.027 C 130.362 48.238,132.483 47.669,131.400 47.686 C 130.740 47.696,129.153 47.932,127.874 48.211 M172.799 48.434 C 174.669 48.856,176.379 49.140,176.599 49.067 C 177.124 48.891,171.357 47.590,170.251 47.634 C 169.783 47.652,170.930 48.012,172.799 48.434 M118.200 50.974 C 111.017 53.366,99.532 58.465,100.084 59.018 C 100.177 59.110,101.433 58.559,102.875 57.794 C 107.261 55.464,114.595 52.464,119.526 50.982 C 125.132 49.296,125.214 49.266,124.200 49.253 C 123.760 49.247,121.060 50.022,118.200 50.974 M180.200 50.243 C 185.638 51.903,191.148 54.006,195.873 56.226 C 201.071 58.668,201.946 58.786,197.212 56.406 C 191.597 53.583,179.445 49.135,177.616 49.233 C 177.277 49.251,178.440 49.706,180.200 50.243 M200.800 58.566 C 200.800 58.657,202.015 59.403,203.500 60.224 C 213.889 65.970,226.515 76.755,233.400 85.765 C 236.096 89.293,237.814 91.300,237.366 90.400 C 236.685 89.030,231.319 82.465,228.211 79.200 C 220.682 71.290,212.137 64.629,202.488 59.146 C 201.158 58.390,200.800 58.267,200.800 58.566 M98.300 59.829 C 96.805 60.640,96.896 60.978,98.400 60.200 C 99.060 59.859,99.600 59.494,99.600 59.390 C 99.600 59.132,99.557 59.147,98.300 59.829 M91.942 63.860 C 79.744 72.106,70.849 81.068,62.482 93.543 C 61.097 95.608,60.036 97.370,60.125 97.458 C 60.214 97.547,61.428 95.870,62.824 93.731 C 70.739 81.607,81.575 70.825,93.500 63.207 C 95.417 61.982,95.879 61.600,95.442 61.600 C 95.356 61.600,93.781 62.617,91.942 63.860 M238.585 92.700 C 239.202 93.635,239.783 94.400,239.876 94.400 C 240.164 94.400,238.633 91.966,238.032 91.469 C 237.720 91.211,237.968 91.765,238.585 92.700 M240.110 95.000 C 240.209 95.220,241.206 96.934,242.325 98.810 C 243.444 100.685,245.329 104.285,246.514 106.810 C 249.920 114.070,250.031 114.289,249.751 113.200 C 249.042 110.439,242.633 97.912,240.746 95.600 C 240.298 95.050,240.011 94.780,240.110 95.000 M58.330 100.300 C 56.539 103.319,53.360 109.891,52.099 113.182 C 50.672 116.903,48.397 124.072,48.414 124.792 C 48.422 125.126,49.434 122.370,50.663 118.667 C 52.179 114.096,54.016 109.696,56.383 104.967 C 58.301 101.135,59.830 98.000,59.782 98.000 C 59.733 98.000,59.080 99.035,58.330 100.300 M250.011 114.633 C 250.032 115.341,252.355 121.394,252.378 120.798 C 252.390 120.467,251.948 118.950,251.395 117.427 C 250.424 114.749,249.988 113.870,250.011 114.633 M252.434 122.000 C 252.446 122.330,252.611 122.960,252.800 123.400 L 253.144 124.200 253.166 123.400 C 253.178 122.960,253.013 122.330,252.800 122.000 C 252.455 121.467,252.415 121.467,252.434 122.000 M253.246 124.800 C 253.265 125.130,253.424 125.850,253.600 126.400 L 253.920 127.400 253.954 126.400 C 253.973 125.850,253.813 125.130,253.600 124.800 C 253.255 124.267,253.216 124.267,253.246 124.800 M47.856 126.484 C 47.721 126.988,47.627 127.760,47.646 128.200 C 47.665 128.640,47.845 128.298,48.046 127.440 C 48.436 125.778,48.270 124.940,47.856 126.484 M254.046 128.200 C 254.115 129.831,254.715 131.187,254.754 129.800 C 254.773 129.140,254.613 128.330,254.400 128.000 C 254.081 127.506,254.018 127.541,254.046 128.200 M47.073 129.753 C 46.923 130.145,46.818 131.036,46.840 131.733 C 46.879 132.967,46.890 132.959,47.249 131.427 C 47.645 129.737,47.524 128.579,47.073 129.753 M254.875 131.800 C 254.886 132.240,255.032 133.140,255.200 133.800 L 255.505 135.000 255.525 133.800 C 255.535 133.140,255.389 132.240,255.200 131.800 L 254.856 131.000 254.875 131.800 M46.276 134.010 C 46.130 134.555,46.028 135.540,46.049 136.200 C 46.080 137.157,46.159 137.036,46.442 135.600 C 46.829 133.633,46.702 132.417,46.276 134.010 M255.857 138.200 C 255.991 139.520,256.168 140.675,256.250 140.767 C 256.569 141.121,256.324 137.356,255.979 136.600 C 255.738 136.072,255.696 136.616,255.857 138.200 M45.453 139.636 C 45.314 140.331,45.225 142.093,45.255 143.550 C 45.308 146.106,45.322 146.065,45.645 142.424 C 45.988 138.566,45.905 137.374,45.453 139.636 M256.600 151.800 C 256.600 156.814,256.725 160.215,256.877 159.358 C 257.029 158.501,257.154 155.100,257.154 151.800 C 257.154 148.500,257.029 145.099,256.877 144.242 C 256.725 143.385,256.600 146.786,256.600 151.800 M44.944 152.000 C 44.944 154.090,45.012 154.945,45.094 153.900 C 45.176 152.855,45.176 151.145,45.094 150.100 C 45.012 149.055,44.944 149.910,44.944 152.000 M45.240 160.433 C 45.262 162.065,45.424 163.850,45.601 164.400 C 45.782 164.962,45.828 163.737,45.706 161.600 C 45.443 157.000,45.185 156.354,45.240 160.433 M255.870 165.357 C 255.711 166.653,255.661 167.794,255.760 167.893 C 256.026 168.159,256.503 164.618,256.319 163.747 C 256.232 163.336,256.030 164.060,255.870 165.357 M46.074 167.800 C 46.064 168.680,46.211 169.760,46.400 170.200 L 46.744 171.000 46.749 170.200 C 46.752 169.760,46.605 168.680,46.423 167.800 L 46.092 166.200 46.074 167.800 M255.054 170.354 C 254.900 171.318,254.858 172.191,254.961 172.294 C 255.230 172.563,255.715 169.745,255.507 169.122 C 255.412 168.836,255.208 169.390,255.054 170.354 M46.875 172.200 C 46.865 172.860,47.011 173.760,47.200 174.200 L 47.544 175.000 47.525 174.200 C 47.514 173.760,47.368 172.860,47.200 172.200 L 46.895 171.000 46.875 172.200 M254.449 173.600 C 254.416 173.930,254.289 174.650,254.167 175.200 C 253.975 176.064,254.007 176.103,254.399 175.488 C 254.648 175.097,254.775 174.377,254.681 173.888 C 254.586 173.400,254.482 173.270,254.449 173.600 M47.623 175.680 C 47.581 176.926,49.678 184.092,51.563 189.140 C 53.815 195.174,60.114 207.620,60.645 207.088 C 60.741 206.992,60.115 205.754,59.254 204.337 C 55.405 198.001,51.387 188.400,48.987 179.800 C 48.250 177.160,47.636 175.306,47.623 175.680 M253.450 178.050 C 253.117 179.717,253.440 180.040,253.800 178.400 C 253.952 177.709,253.993 177.059,253.891 176.958 C 253.789 176.856,253.591 177.347,253.450 178.050 M252.236 182.423 C 250.742 187.826,246.596 197.497,242.987 204.000 C 242.194 205.430,241.839 206.240,242.198 205.800 C 245.183 202.149,253.726 182.179,253.103 180.310 C 253.018 180.055,252.628 181.006,252.236 182.423 M239.964 208.885 C 229.892 224.792,215.428 237.712,197.600 246.727 C 193.970 248.563,191.450 249.938,192.000 249.784 C 199.243 247.748,214.891 237.367,225.136 227.800 C 229.939 223.315,242.210 207.676,241.490 206.957 C 241.387 206.854,240.700 207.721,239.964 208.885 M61.253 208.500 C 63.071 211.896,69.811 220.453,74.272 225.028 C 76.432 227.243,77.192 227.963,75.959 226.628 C 70.633 220.857,65.944 214.986,62.599 209.900 C 61.071 207.576,60.367 206.844,61.253 208.500 M78.800 229.418 C 78.800 230.844,93.400 241.376,101.141 245.533 C 107.703 249.057,120.003 254.034,122.000 253.973 C 122.330 253.963,119.900 253.015,116.600 251.867 C 104.116 247.522,90.935 239.907,81.700 231.704 C 80.105 230.287,78.800 229.258,78.800 229.418 M271.310 241.900 C 270.881 242.285,269.512 243.950,268.268 245.600 C 262.723 252.950,253.060 262.640,245.230 268.701 C 239.511 273.128,239.527 273.086,242.500 276.141 C 243.655 277.327,244.794 278.546,245.030 278.849 C 245.267 279.152,245.931 279.750,246.506 280.177 C 247.081 280.604,247.470 281.086,247.370 281.248 C 247.270 281.410,247.551 281.657,247.994 281.798 C 248.437 281.939,248.800 282.312,248.800 282.627 C 248.800 282.942,248.992 283.200,249.226 283.200 C 249.587 283.200,251.028 284.599,254.684 288.500 C 256.053 289.960,255.589 290.364,275.635 270.303 C 286.287 259.643,288.400 257.413,288.400 256.833 C 288.400 256.378,283.241 251.200,282.789 251.200 C 282.575 251.200,282.445 250.975,282.500 250.700 C 282.555 250.425,282.375 250.245,282.100 250.300 C 281.825 250.355,281.600 250.227,281.600 250.015 C 281.600 249.543,274.118 242.015,273.883 242.251 C 273.790 242.343,273.486 242.145,273.208 241.810 C 272.560 241.028,272.264 241.043,271.310 241.900 M184.800 252.021 C 181.830 253.084,179.610 253.964,179.867 253.977 C 180.512 254.009,188.771 251.233,190.000 250.571 C 191.705 249.652,190.404 250.015,184.800 252.021 M123.600 254.400 C 123.930 254.613,124.560 254.778,125.000 254.766 L 125.800 254.744 125.000 254.400 C 123.804 253.886,122.805 253.886,123.600 254.400 M177.000 254.400 L 176.200 254.744 177.000 254.766 C 177.440 254.778,178.070 254.613,178.400 254.400 C 179.195 253.886,178.196 253.886,177.000 254.400 M126.800 255.200 C 127.130 255.413,127.850 255.573,128.400 255.554 L 129.400 255.520 128.400 255.200 C 126.858 254.706,126.036 254.706,126.800 255.200 M173.600 255.200 L 172.600 255.520 173.600 255.532 C 174.150 255.538,174.960 255.389,175.400 255.200 L 176.200 254.856 175.400 254.868 C 174.960 254.874,174.150 255.024,173.600 255.200 M130.200 256.000 C 130.640 256.189,131.540 256.335,132.200 256.325 L 133.400 256.305 132.200 256.000 C 131.540 255.832,130.640 255.686,130.200 255.675 L 129.400 255.656 130.200 256.000 M169.800 256.000 L 168.600 256.305 169.800 256.325 C 170.460 256.335,171.360 256.189,171.800 256.000 L 172.600 255.656 171.800 255.675 C 171.360 255.686,170.460 255.832,169.800 256.000 M135.000 256.779 C 135.756 257.124,139.521 257.369,139.167 257.050 C 139.075 256.968,137.920 256.791,136.600 256.657 C 135.016 256.496,134.472 256.538,135.000 256.779 M164.200 256.800 L 162.600 257.086 164.400 257.115 C 165.390 257.131,166.560 256.989,167.000 256.800 C 168.024 256.360,166.657 256.360,164.200 256.800 M141.823 257.653 C 143.381 257.987,159.140 257.993,160.324 257.660 C 160.832 257.517,156.612 257.400,150.946 257.400 C 145.281 257.400,141.175 257.514,141.823 257.653 " stroke="none" fill="#9cacb6" fill-rule="evenodd"></path><path id="path4" d="M143.000 46.439 C 76.883 51.850,31.899 115.253,48.834 179.160 C 51.075 187.617,55.301 197.830,59.244 204.321 C 60.100 205.729,60.800 206.961,60.800 207.059 C 60.800 207.156,61.734 208.623,62.874 210.318 C 92.746 254.697,149.844 270.176,197.400 246.786 C 260.613 215.697,276.414 133.833,229.391 81.049 C 208.058 57.103,174.918 43.827,143.000 46.439 M165.600 47.768 C 208.130 54.150,241.339 83.626,252.609 124.996 C 265.650 172.865,241.809 224.983,197.099 246.346 C 190.959 249.279,189.792 249.765,185.000 251.379 C 148.959 263.525,110.459 255.928,81.620 230.979 C 48.505 202.332,36.550 151.927,53.495 112.400 C 53.825 111.630,54.366 110.370,54.697 109.600 C 69.522 75.103,101.657 51.818,140.800 47.207 C 145.258 46.682,160.690 47.031,165.600 47.768 " stroke="none" fill="#a1bccc" fill-rule="evenodd"></path></g></svg>